<svg xmlns="http://www.w3.org/2000/svg" viewBox="0 0 160 48"><g transform="translate(7 0) scale(0.1875)"><path fill="#036" d="m181 139 51 27-104 56V55l104 56z"/><path fill="#ccc" d="M128 55v167L24 166l51-27-51-28z"/><path fill="#036" d="m88 115 104-56V35l-40 2V13L48 69v24z"/><path fill="#ccc" d="m128 112 104-56v34l-76 40v22l76-41v34l-76 41v21l76-41v34l-104 56z"/><path fill="#036" d="M128 112 24 56v34l76 40v22l-76-41v34l76 41v21l-76-41v34l104 56z"/><path fill="#fff" d="M24 56 128 0l24 13-75 41 15 8 76-41 24 14-75 40 15 9 76-41 24 13-104 56z"/></g><path fill="#ccc" d="M71.81 33H62.4V15.86h9.41v1.25h-8.02v6.29h7.56v1.22h-7.56v7.13h8.02zM81.1 19.99q2.19 0 3.34 1.13t1.15 3.55V33h-1.34v-8.26q0-1.85-.84-2.71t-2.47-.86q-2.09 0-3.14 1.22-1.06 1.23-1.06 3.65V33H75.4V20.23h1.08l.22 2.21h.07a4.6 4.6 0 0 1 2.41-2.13 5 5 0 0 1 1.93-.32ZM93.26 32.09a7 7 0 0 0 1.85-.28v1.1q-.36.15-.9.24-.54.1-1.14.1-1.06 0-1.8-.4c-.74-.4-.88-.68-1.14-1.24a5 5 0 0 1-.4-2.16v-8.11h-1.87v-.77l1.87-.43.5-2.95h.86v3.05h3.94v1.1h-3.94v8.06q0 1.32.53 2 .53.69 1.63.68ZM105.43 24.7l-.23-.79-.2-.73-.19-.68-.17-.62h-.07l-.16.62-.18.71-.2.74-.23.78-2.71 8.28h-1.44l-3.6-12.77h1.42l2.16 7.9.34 1.31.26 1.08q.12.5.17.9h.07l.16-.64.18-.73.23-.83.28-.9 2.64-8.09h1.42l2.52 8.06q.19.57.35 1.14l.29 1.06q.14.5.2.92h.07q.04-.4.16-.9l.26-1.09.35-1.3 2.09-7.9h1.39L109.58 33h-1.51l-2.62-8.3ZM119.97 20.02q2.16 0 3.22 1.06 1.06 1.05 1.06 3.36v8.57h-1.03l-.24-2.16h-.07q-.45.72-1.04 1.26-.58.54-1.42.84-.83.3-2.03.3c-1.2 0-1.5-.14-2.09-.42a3 3 0 0 1-1.37-1.21 3.7 3.7 0 0 1-.48-1.94q0-1.9 1.56-2.89t4.54-1.14l2.33-.1v-.91q0-1.9-.76-2.68c-.76-.78-1.25-.78-2.24-.78q-.98 0-1.88.25t-1.81.71l-.43-1.08a10 10 0 0 1 4.2-1.03Zm.75 6.62q-2.42.12-3.62.85a2.4 2.4 0 0 0-1.2 2.2q0 1.18.74 1.79.75.61 2.02.61 2.04 0 3.13-1.13a4.5 4.5 0 0 0 1.12-3.17v-1.25zM133.56 20.02a7 7 0 0 1 1.72.22l-.19 1.25q-.39-.1-.77-.16c-.38-.06-.54-.06-.84-.06a3.4 3.4 0 0 0-2.76 1.3q-.5.63-.77 1.49a7 7 0 0 0-.26 1.94v7.01h-1.37V20.24h1.15l.14 2.4h.07q.31-.75.85-1.33t1.31-.94a4 4 0 0 1 1.7-.35ZM142.13 19.99q1.65 0 2.75.76 1.1.75 1.66 2.08c.56 1.33.56 1.9.56 3.05v.91h-9.12q0 2.57 1.19 3.91t3.37 1.34q1.2 0 2.09-.19a10 10 0 0 0 1.94-.67v1.25q-.96.44-1.9.62-.93.2-2.18.19a6 6 0 0 1-3.23-.79q-1.33-.79-2.02-2.27c-.69-1.48-.68-2.13-.68-3.44s.22-2.47.65-3.48q.64-1.51 1.9-2.39c1.26-.88 1.84-.88 3.02-.88m0 1.15q-1.77 0-2.86 1.16a5.5 5.5 0 0 0-1.27 3.35h7.68q0-1.35-.38-2.35a3.4 3.4 0 0 0-1.16-1.58 3.3 3.3 0 0 0-2-.58Z"/></svg>
